<svg version="1.1" xmlns="http://www.w3.org/2000/svg" xmlns:xlink="http://www.w3.org/1999/xlink" width="660" height="1116"><defs/><g><g transform="translate(-54,-38) scale(1,1)"><path fill="#ffffff" stroke="none" d="M 301.5 48 L 400.9580078125 48 Q 417.4580078125 48 417.4580078125 64.5 L 417.4580078125 63.5 Q 417.4580078125 80 400.9580078125 80 L 301.5 80 Q 285 80 285 63.5 L 285 64.5 Q 285 48 301.5 48 Z"/></g><g transform="translate(-54,-38) scale(1,1)"><path fill="none" stroke="#000000" d="M 301.5 48 L 400.9580078125 48 Q 417.4580078125 48 417.4580078125 64.5 L 417.4580078125 63.5 Q 417.4580078125 80 400.9580078125 80 L 301.5 80 Q 285 80 285 63.5 L 285 64.5 Q 285 48 301.5 48 Z" stroke-miterlimit="10"/></g><g transform="translate(-54,-38) scale(1,1)"><g><path fill="none" stroke="none"/><text fill="#000000" stroke="none" font-family="Arial" font-size="13px" font-style="normal" font-weight="normal" text-decoration="none" x="294.5" y="70.5">进入popConnection</text></g></g><g transform="translate(-54,-38) scale(1,1)"><rect fill="#ffffff" stroke="none" x="257" y="120" width="188" height="32"/></g><g transform="translate(-54,-38) scale(1,1)"><path fill="none" stroke="#000000" d="M 257 120 L 445 120 L 445 152 L 257 152 L 257 120 Z Z" stroke-miterlimit="10"/></g><g transform="translate(-54,-38) scale(1,1)"><g><path fill="none" stroke="none"/><text fill="#000000" stroke="none" font-family="Arial" font-size="13px" font-style="normal" font-weight="normal" text-decoration="none" x="266.5" y="142.5">初始化信息，连接初始化为空</text></g></g><g transform="translate(-54,-38) scale(1,1)"><path fill="#ffffff" stroke="none" d="M 272 217.5 L 352 192 L 432 217.5 L 352 243 L 272 217.5"/></g><g transform="translate(-54,-38) scale(1,1)"><path fill="none" stroke="#000000" d="M 272 217.5 L 352 192 L 432 217.5 L 352 243 L 272 217.5 L 272 217.5" stroke-miterlimit="10"/></g><g transform="translate(-54,-38) scale(1,1)"><g><path fill="none" stroke="none"/><text fill="#000000" stroke="none" font-family="Arial" font-size="13px" font-style="normal" font-weight="normal" text-decoration="none" x="326" y="217.5">判断连接</text><text fill="#000000" stroke="none" font-family="Arial" font-size="13px" font-style="normal" font-weight="normal" text-decoration="none" x="326" y="230.5">是否为空</text></g></g><g transform="translate(-54,-38) scale(1,1)"><path fill="none" stroke="#000000" d="M 352 80 L 352 120" stroke-miterlimit="10"/></g><g transform="translate(-54,-38) scale(1,1)"><path fill="#000000" stroke="none" d="M 347.790482243984 109.83732514237585 L 352 120 L 356.209517756016 109.83732514237585"/></g><g transform="translate(-54,-38) scale(1,1)"><path fill="none" stroke="#000000" d="M 347.790482243984 109.83732514237585 L 352 120 L 356.209517756016 109.83732514237585 L 347.790482243984 109.83732514237585" stroke-miterlimit="10"/></g><g transform="translate(-54,-38) scale(1,1)"><path fill="none" stroke="#000000" d="M 352 152 L 352 192" stroke-miterlimit="10"/></g><g transform="translate(-54,-38) scale(1,1)"><path fill="#000000" stroke="none" d="M 347.790482243984 181.83732514237585 L 352 192 L 356.209517756016 181.83732514237585"/></g><g transform="translate(-54,-38) scale(1,1)"><path fill="none" stroke="#000000" d="M 347.790482243984 181.83732514237585 L 352 192 L 356.209517756016 181.83732514237585 L 347.790482243984 181.83732514237585" stroke-miterlimit="10"/></g><g transform="translate(-54,-38) scale(1,1)"><rect fill="#ffffff" stroke="none" x="296" y="264" width="110" height="32"/></g><g transform="translate(-54,-38) scale(1,1)"><path fill="none" stroke="#000000" d="M 296 264 L 406 264 L 406 296 L 296 296 L 296 264 Z Z" stroke-miterlimit="10"/></g><g transform="translate(-54,-38) scale(1,1)"><g><path fill="none" stroke="none"/><text fill="#000000" stroke="none" font-family="Arial" font-size="13px" font-style="normal" font-weight="normal" text-decoration="none" x="305.5" y="286.5">锁定连接池状态</text></g></g><g transform="translate(-54,-38) scale(1,1)"><path fill="#ffffff" stroke="none" d="M 256 353.5 L 356 328 L 456 353.5 L 356 379 L 256 353.5"/></g><g transform="translate(-54,-38) scale(1,1)"><path fill="none" stroke="#000000" d="M 256 353.5 L 356 328 L 456 353.5 L 356 379 L 256 353.5 L 256 353.5" stroke-miterlimit="10"/></g><g transform="translate(-54,-38) scale(1,1)"><g><path fill="none" stroke="none"/><text fill="#000000" stroke="none" font-family="Arial" font-size="13px" font-style="normal" font-weight="normal" text-decoration="none" x="317" y="353.5">空闲连接列表</text><text fill="#000000" stroke="none" font-family="Arial" font-size="13px" font-style="normal" font-weight="normal" text-decoration="none" x="330" y="366.5">是否为空</text></g></g><g transform="translate(-54,-38) scale(1,1)"><rect fill="#ffffff" stroke="none" x="568" y="336" width="136" height="32"/></g><g transform="translate(-54,-38) scale(1,1)"><path fill="none" stroke="#000000" d="M 568 336 L 704 336 L 704 368 L 568 368 L 568 336 Z Z" stroke-miterlimit="10"/></g><g transform="translate(-54,-38) scale(1,1)"><g><path fill="none" stroke="none"/><text fill="#000000" stroke="none" font-family="Arial" font-size="13px" font-style="normal" font-weight="normal" text-decoration="none" x="577.5" y="358.5">从空闲连接获取一条</text></g></g><g transform="translate(-54,-38) scale(1,1)"><path fill="#ffffff" stroke="none" d="M 256 441.5 L 356 416 L 456 441.5 L 356 467 L 256 441.5"/></g><g transform="translate(-54,-38) scale(1,1)"><path fill="none" stroke="#000000" d="M 256 441.5 L 356 416 L 456 441.5 L 356 467 L 256 441.5 L 256 441.5" stroke-miterlimit="10"/></g><g transform="translate(-54,-38) scale(1,1)"><g><path fill="none" stroke="none"/><text fill="#000000" stroke="none" font-family="Arial" font-size="13px" font-style="normal" font-weight="normal" text-decoration="none" x="310.5" y="441.5">活跃连接数是否</text><text fill="#000000" stroke="none" font-family="Arial" font-size="13px" font-style="normal" font-weight="normal" text-decoration="none" x="310.5" y="454.5">小于最大连接数</text></g></g><g transform="translate(-54,-38) scale(1,1)"><rect fill="#ffffff" stroke="none" x="544" y="424" width="73.18994140625" height="32"/></g><g transform="translate(-54,-38) scale(1,1)"><path fill="none" stroke="#000000" d="M 544 424 L 617.18994140625 424 L 617.18994140625 456 L 544 456 L 544 424 Z Z" stroke-miterlimit="10"/></g><g transform="translate(-54,-38) scale(1,1)"><g><path fill="none" stroke="none"/><text fill="#000000" stroke="none" font-family="Arial" font-size="13px" font-style="normal" font-weight="normal" text-decoration="none" x="554.594970703125" y="446.5">新建连接</text></g></g><g transform="translate(-54,-38) scale(1,1)"><rect fill="#ffffff" stroke="none" x="280" y="512" width="149" height="45"/></g><g transform="translate(-54,-38) scale(1,1)"><path fill="none" stroke="#000000" d="M 280 512 L 429 512 L 429 557 L 280 557 L 280 512 Z Z" stroke-miterlimit="10"/></g><g transform="translate(-54,-38) scale(1,1)"><g><path fill="none" stroke="none"/><text fill="#000000" stroke="none" font-family="Arial" font-size="13px" font-style="normal" font-weight="normal" text-decoration="none" x="289.5" y="534.5">获取列表中最老的连接</text><text fill="#000000" stroke="none" font-family="Arial" font-size="13px" font-style="normal" font-weight="normal" text-decoration="none" x="302.5" y="547.5">获取连接使用时长</text></g></g><g transform="translate(-54,-38) scale(1,1)"><path fill="#ffffff" stroke="none" d="M 192 633.5 L 356.2216796875 608 L 520.443359375 633.5 L 356.2216796875 659 L 192 633.5"/></g><g transform="translate(-54,-38) scale(1,1)"><path fill="none" stroke="#000000" d="M 192 633.5 L 356.2216796875 608 L 520.443359375 633.5 L 356.2216796875 659 L 192 633.5 L 192 633.5" stroke-miterlimit="10"/></g><g transform="translate(-54,-38) scale(1,1)"><g><path fill="none" stroke="none"/><text fill="#000000" stroke="none" font-family="Arial" font-size="13px" font-style="normal" font-weight="normal" text-decoration="none" x="304.2216796875" y="633.5">判断时间是否超过</text><text fill="#000000" stroke="none" font-family="Arial" font-size="13px" font-style="normal" font-weight="normal" text-decoration="none" x="273.86083984375" y="646.5">poolMaximumCheckoutTime</text></g></g><g transform="translate(-54,-38) scale(1,1)"><rect fill="#ffffff" stroke="none" x="64" y="616" width="113.63720703125" height="45"/></g><g transform="translate(-54,-38) scale(1,1)"><path fill="none" stroke="#000000" d="M 64 616 L 177.63720703125 616 L 177.63720703125 661 L 64 661 L 64 616 Z Z" stroke-miterlimit="10"/></g><g transform="translate(-54,-38) scale(1,1)"><g><path fill="none" stroke="none"/><text fill="#000000" stroke="none" font-family="Arial" font-size="13px" font-style="normal" font-weight="normal" text-decoration="none" x="75.318603515625" y="638.5">等待指定的时间</text><text fill="#000000" stroke="none" font-family="Arial" font-size="13px" font-style="normal" font-weight="normal" text-decoration="none" x="73.5" y="651.5">poolTimeToWait</text></g></g><g transform="translate(-54,-38) scale(1,1)"><rect fill="#ffffff" stroke="none" x="256" y="704" width="214" height="58"/></g><g transform="translate(-54,-38) scale(1,1)"><path fill="none" stroke="#000000" d="M 256 704 L 470 704 L 470 762 L 256 762 L 256 704 Z Z" stroke-miterlimit="10"/></g><g transform="translate(-54,-38) scale(1,1)"><g><path fill="none" stroke="none"/><text fill="#000000" stroke="none" font-family="Arial" font-size="13px" font-style="normal" font-weight="normal" text-decoration="none" x="298" y="726.5">从列表中删除超时连接</text><text fill="#000000" stroke="none" font-family="Arial" font-size="13px" font-style="normal" font-weight="normal" text-decoration="none" x="265.5" y="739.5">如果连接未设置自动提交，则回滚</text><text fill="#000000" stroke="none" font-family="Arial" font-size="13px" font-style="normal" font-weight="normal" text-decoration="none" x="272" y="752.5">新建连接，并将旧链接设为失效</text></g></g><g transform="translate(-54,-38) scale(1,1)"><path fill="none" stroke="#000000" d="M 352 243 L 352 264" stroke-miterlimit="10"/></g><g transform="translate(-54,-38) scale(1,1)"><path fill="#000000" stroke="none" d="M 347.790482243984 253.83732514237585 L 352 264 L 356.209517756016 253.83732514237585"/></g><g transform="translate(-54,-38) scale(1,1)"><path fill="none" stroke="#000000" d="M 347.790482243984 253.83732514237585 L 352 264 L 356.209517756016 253.83732514237585 L 347.790482243984 253.83732514237585" stroke-miterlimit="10"/></g><g transform="translate(-54,-38) scale(1,1)"><g><path fill="none" stroke="none"/><text fill="#000000" stroke="none" font-family="Arial" font-size="13px" font-style="normal" font-weight="normal" text-decoration="none" x="359.5" y="258.5">是</text></g></g><g transform="translate(-54,-38) scale(1,1)"><path fill="none" stroke="#000000" d="M 352 296 L 352 328" stroke-miterlimit="10"/></g><g transform="translate(-54,-38) scale(1,1)"><path fill="#000000" stroke="none" d="M 347.790482243984 317.83732514237585 L 352 328 L 356.209517756016 317.83732514237585"/></g><g transform="translate(-54,-38) scale(1,1)"><path fill="none" stroke="#000000" d="M 347.790482243984 317.83732514237585 L 352 328 L 356.209517756016 317.83732514237585 L 347.790482243984 317.83732514237585" stroke-miterlimit="10"/></g><g transform="translate(-54,-38) scale(1,1)"><path fill="none" stroke="#000000" d="M 456 352 L 568 352" stroke-miterlimit="10"/></g><g transform="translate(-54,-38) scale(1,1)"><path fill="#000000" stroke="none" d="M 557.8373251423759 356.209517756016 L 568 352 L 557.8373251423758 347.790482243984"/></g><g transform="translate(-54,-38) scale(1,1)"><path fill="none" stroke="#000000" d="M 557.8373251423759 356.209517756016 L 568 352 L 557.8373251423758 347.790482243984 L 557.8373251423759 356.209517756016" stroke-miterlimit="10"/></g><g transform="translate(-54,-38) scale(1,1)"><g><path fill="none" stroke="none"/><text fill="#000000" stroke="none" font-family="Arial" font-size="13px" font-style="normal" font-weight="normal" text-decoration="none" x="505.5" y="343.5">是</text></g></g><g transform="translate(-54,-38) scale(1,1)"><path fill="none" stroke="#000000" d="M 356 379 L 356 416" stroke-miterlimit="10"/></g><g transform="translate(-54,-38) scale(1,1)"><path fill="#000000" stroke="none" d="M 351.790482243984 405.83732514237585 L 356 416 L 360.209517756016 405.83732514237585"/></g><g transform="translate(-54,-38) scale(1,1)"><path fill="none" stroke="#000000" d="M 351.790482243984 405.83732514237585 L 356 416 L 360.209517756016 405.83732514237585 L 351.790482243984 405.83732514237585" stroke-miterlimit="10"/></g><g transform="translate(-54,-38) scale(1,1)"><g><path fill="none" stroke="none"/><text fill="#000000" stroke="none" font-family="Arial" font-size="13px" font-style="normal" font-weight="normal" text-decoration="none" x="363.5" y="402.5">否</text></g></g><g transform="translate(-54,-38) scale(1,1)"><path fill="none" stroke="#000000" d="M 456 441 L 544 441" stroke-miterlimit="10"/></g><g transform="translate(-54,-38) scale(1,1)"><path fill="#000000" stroke="none" d="M 533.8373251423759 445.209517756016 L 544 441 L 533.8373251423758 436.790482243984"/></g><g transform="translate(-54,-38) scale(1,1)"><path fill="none" stroke="#000000" d="M 533.8373251423759 445.209517756016 L 544 441 L 533.8373251423758 436.790482243984 L 533.8373251423759 445.209517756016" stroke-miterlimit="10"/></g><g transform="translate(-54,-38) scale(1,1)"><g><path fill="none" stroke="none"/><text fill="#000000" stroke="none" font-family="Arial" font-size="13px" font-style="normal" font-weight="normal" text-decoration="none" x="493.5" y="432.5">是</text></g></g><g transform="translate(-54,-38) scale(1,1)"><path fill="none" stroke="#000000" d="M 355 467 L 355 512" stroke-miterlimit="10"/></g><g transform="translate(-54,-38) scale(1,1)"><path fill="#000000" stroke="none" d="M 350.790482243984 501.83732514237585 L 355 512 L 359.209517756016 501.83732514237585"/></g><g transform="translate(-54,-38) scale(1,1)"><path fill="none" stroke="#000000" d="M 350.790482243984 501.83732514237585 L 355 512 L 359.209517756016 501.83732514237585 L 350.790482243984 501.83732514237585" stroke-miterlimit="10"/></g><g transform="translate(-54,-38) scale(1,1)"><g><path fill="none" stroke="none"/><text fill="#000000" stroke="none" font-family="Arial" font-size="13px" font-style="normal" font-weight="normal" text-decoration="none" x="362.5" y="494.5">否</text></g></g><g transform="translate(-54,-38) scale(1,1)"><path fill="none" stroke="#000000" d="M 355 557 L 355 608" stroke-miterlimit="10"/></g><g transform="translate(-54,-38) scale(1,1)"><path fill="#000000" stroke="none" d="M 350.790482243984 597.8373251423759 L 355 608 L 359.209517756016 597.8373251423759"/></g><g transform="translate(-54,-38) scale(1,1)"><path fill="none" stroke="#000000" d="M 350.790482243984 597.8373251423759 L 355 608 L 359.209517756016 597.8373251423759 L 350.790482243984 597.8373251423759" stroke-miterlimit="10"/></g><g transform="translate(-54,-38) scale(1,1)"><path fill="none" stroke="#000000" d="M 360 659 L 360 704" stroke-miterlimit="10"/></g><g transform="translate(-54,-38) scale(1,1)"><path fill="#000000" stroke="none" d="M 355.790482243984 693.8373251423759 L 360 704 L 364.209517756016 693.8373251423759"/></g><g transform="translate(-54,-38) scale(1,1)"><path fill="none" stroke="#000000" d="M 355.790482243984 693.8373251423759 L 360 704 L 364.209517756016 693.8373251423759 L 355.790482243984 693.8373251423759" stroke-miterlimit="10"/></g><g transform="translate(-54,-38) scale(1,1)"><g><path fill="none" stroke="none"/><text fill="#000000" stroke="none" font-family="Arial" font-size="13px" font-style="normal" font-weight="normal" text-decoration="none" x="367.5" y="686.5">是</text></g></g><g transform="translate(-54,-38) scale(1,1)"><path fill="none" stroke="#000000" d="M 192 633 L 178 633" stroke-miterlimit="10"/></g><g transform="translate(-54,-38) scale(1,1)"><path fill="#000000" stroke="none" d="M 188.16267485762415 628.790482243984 L 178 633 L 188.16267485762415 637.209517756016"/></g><g transform="translate(-54,-38) scale(1,1)"><path fill="none" stroke="#000000" d="M 188.16267485762415 628.790482243984 L 178 633 L 188.16267485762415 637.209517756016 L 188.16267485762415 628.790482243984" stroke-miterlimit="10"/></g><g transform="translate(-54,-38) scale(1,1)"><g><path fill="none" stroke="none"/><text fill="#000000" stroke="none" font-family="Arial" font-size="13px" font-style="normal" font-weight="normal" text-decoration="none" x="177.5" y="654.5">否</text></g></g><g transform="translate(-54,-38) scale(1,1)"><path fill="none" stroke="#000000" d="M 120 616 L 120 224 M 120 224 A 8 8 0 0 1 128 216 L 272 216" stroke-miterlimit="10"/></g><g transform="translate(-54,-38) scale(1,1)"><path fill="#000000" stroke="none" d="M 261.83732514237585 220.209517756016 L 272 216 L 261.83732514237585 211.790482243984"/></g><g transform="translate(-54,-38) scale(1,1)"><path fill="none" stroke="#000000" d="M 261.83732514237585 220.209517756016 L 272 216 L 261.83732514237585 211.790482243984 L 261.83732514237585 220.209517756016" stroke-miterlimit="10"/></g><g transform="translate(-54,-38) scale(1,1)"><g><path fill="none" stroke="none"/><text fill="#000000" stroke="none" font-family="Arial" font-size="13px" font-style="normal" font-weight="normal" text-decoration="none" x="100.5" y="207.5">超时后</text></g></g><g transform="translate(-54,-38) scale(1,1)"><path fill="#ffffff" stroke="none" d="M 256 878.5 L 359.5 864 L 463 878.5 L 359.5 893 L 256 878.5"/></g><g transform="translate(-54,-38) scale(1,1)"><path fill="none" stroke="#000000" d="M 256 878.5 L 359.5 864 L 463 878.5 L 359.5 893 L 256 878.5 L 256 878.5" stroke-miterlimit="10"/></g><g transform="translate(-54,-38) scale(1,1)"><g><path fill="none" stroke="none"/><text fill="#000000" stroke="none" font-family="Arial" font-size="13px" font-style="normal" font-weight="normal" text-decoration="none" x="307.5" y="885">检查连接是否有效</text></g></g><g transform="translate(-54,-38) scale(1,1)"><rect fill="#ffffff" stroke="none" x="312" y="800" width="97" height="32"/></g><g transform="translate(-54,-38) scale(1,1)"><path fill="none" stroke="#000000" d="M 312 800 L 409 800 L 409 832 L 312 832 L 312 800 Z Z" stroke-miterlimit="10"/></g><g transform="translate(-54,-38) scale(1,1)"><g><path fill="none" stroke="none"/><text fill="#000000" stroke="none" font-family="Arial" font-size="13px" font-style="normal" font-weight="normal" text-decoration="none" x="321.5" y="822.5">设置连接信息</text></g></g><g transform="translate(-54,-38) scale(1,1)"><path fill="none" stroke="#000000" d="M 362 762 L 362 800" stroke-miterlimit="10"/></g><g transform="translate(-54,-38) scale(1,1)"><path fill="#000000" stroke="none" d="M 357.790482243984 789.8373251423759 L 362 800 L 366.209517756016 789.8373251423759"/></g><g transform="translate(-54,-38) scale(1,1)"><path fill="none" stroke="#000000" d="M 357.790482243984 789.8373251423759 L 362 800 L 366.209517756016 789.8373251423759 L 357.790482243984 789.8373251423759" stroke-miterlimit="10"/></g><g transform="translate(-54,-38) scale(1,1)"><path fill="none" stroke="#000000" d="M 576 456 L 576 808 M 576 808 A 8 8 0 0 1 568 816 L 409 816" stroke-miterlimit="10"/></g><g transform="translate(-54,-38) scale(1,1)"><path fill="#000000" stroke="none" d="M 419.16267485762415 811.790482243984 L 409 816 L 419.16267485762415 820.209517756016"/></g><g transform="translate(-54,-38) scale(1,1)"><path fill="none" stroke="#000000" d="M 419.16267485762415 811.790482243984 L 409 816 L 419.16267485762415 820.209517756016 L 419.16267485762415 811.790482243984" stroke-miterlimit="10"/></g><g transform="translate(-54,-38) scale(1,1)"><path fill="none" stroke="#000000" d="M 640 368 L 640 808 M 640 808 A 8 8 0 0 1 632 816 L 409 816" stroke-miterlimit="10"/></g><g transform="translate(-54,-38) scale(1,1)"><path fill="#000000" stroke="none" d="M 419.16267485762415 811.790482243984 L 409 816 L 419.16267485762415 820.209517756016"/></g><g transform="translate(-54,-38) scale(1,1)"><path fill="none" stroke="#000000" d="M 419.16267485762415 811.790482243984 L 409 816 L 419.16267485762415 820.209517756016 L 419.16267485762415 811.790482243984" stroke-miterlimit="10"/></g><g transform="translate(-54,-38) scale(1,1)"><rect fill="#ffffff" stroke="none" x="264" y="936" width="188" height="45"/></g><g transform="translate(-54,-38) scale(1,1)"><path fill="none" stroke="#000000" d="M 264 936 L 452 936 L 452 981 L 264 981 L 264 936 Z Z" stroke-miterlimit="10"/></g><g transform="translate(-54,-38) scale(1,1)"><g><path fill="none" stroke="none"/><text fill="#000000" stroke="none" font-family="Arial" font-size="13px" font-style="normal" font-weight="normal" text-decoration="none" x="273.5" y="958.5">连接未设置自动提交，则回滚</text><text fill="#000000" stroke="none" font-family="Arial" font-size="13px" font-style="normal" font-weight="normal" text-decoration="none" x="312.5" y="971.5">加入到活跃列表</text></g></g><g transform="translate(-54,-38) scale(1,1)"><rect fill="#ffffff" stroke="none" x="88" y="936" width="73.18994140625" height="32"/></g><g transform="translate(-54,-38) scale(1,1)"><path fill="none" stroke="#000000" d="M 88 936 L 161.18994140625 936 L 161.18994140625 968 L 88 968 L 88 936 Z Z" stroke-miterlimit="10"/></g><g transform="translate(-54,-38) scale(1,1)"><g><path fill="none" stroke="none"/><text fill="#000000" stroke="none" font-family="Arial" font-size="13px" font-style="normal" font-weight="normal" text-decoration="none" x="98.594970703125" y="958.5">抛出异常</text></g></g><g transform="translate(-54,-38) scale(1,1)"><path fill="none" stroke="#000000" d="M 119 661 L 119 936" stroke-miterlimit="10"/></g><g transform="translate(-54,-38) scale(1,1)"><path fill="#000000" stroke="none" d="M 114.79048224398402 925.8373251423759 L 119 936 L 123.20951775601598 925.8373251423759"/></g><g transform="translate(-54,-38) scale(1,1)"><path fill="none" stroke="#000000" d="M 114.79048224398402 925.8373251423759 L 119 936 L 123.20951775601598 925.8373251423759 L 114.79048224398402 925.8373251423759" stroke-miterlimit="10"/></g><g transform="translate(-54,-38) scale(1,1)"><g><path fill="none" stroke="none"/><text fill="#000000" stroke="none" font-family="Arial" font-size="13px" font-style="normal" font-weight="normal" text-decoration="none" x="120.5" y="803.5">中断</text></g></g><g transform="translate(-54,-38) scale(1,1)"><path fill="none" stroke="#000000" d="M 360 832 L 360 864" stroke-miterlimit="10"/></g><g transform="translate(-54,-38) scale(1,1)"><path fill="#000000" stroke="none" d="M 355.790482243984 853.8373251423759 L 360 864 L 364.209517756016 853.8373251423759"/></g><g transform="translate(-54,-38) scale(1,1)"><path fill="none" stroke="#000000" d="M 355.790482243984 853.8373251423759 L 360 864 L 364.209517756016 853.8373251423759 L 355.790482243984 853.8373251423759" stroke-miterlimit="10"/></g><g transform="translate(-54,-38) scale(1,1)"><path fill="none" stroke="#000000" d="M 359 893 L 359 936" stroke-miterlimit="10"/></g><g transform="translate(-54,-38) scale(1,1)"><path fill="#000000" stroke="none" d="M 354.790482243984 925.8373251423759 L 359 936 L 363.209517756016 925.8373251423759"/></g><g transform="translate(-54,-38) scale(1,1)"><path fill="none" stroke="#000000" d="M 354.790482243984 925.8373251423759 L 359 936 L 363.209517756016 925.8373251423759 L 354.790482243984 925.8373251423759" stroke-miterlimit="10"/></g><g transform="translate(-54,-38) scale(1,1)"><g><path fill="none" stroke="none"/><text fill="#000000" stroke="none" font-family="Arial" font-size="13px" font-style="normal" font-weight="normal" text-decoration="none" x="366.5" y="919.5">是</text></g></g><g transform="translate(-54,-38) scale(1,1)"><path fill="none" stroke="#000000" d="M 256 880 L 128 880 M 128 880 A 8 8 0 0 0 120 888 L 120 936" stroke-miterlimit="10"/></g><g transform="translate(-54,-38) scale(1,1)"><path fill="#000000" stroke="none" d="M 115.79048224398402 925.8373251423759 L 120 936 L 124.20951775601598 925.8373251423759"/></g><g transform="translate(-54,-38) scale(1,1)"><path fill="none" stroke="#000000" d="M 115.79048224398402 925.8373251423759 L 120 936 L 124.20951775601598 925.8373251423759 L 115.79048224398402 925.8373251423759" stroke-miterlimit="10"/></g><g transform="translate(-54,-38) scale(1,1)"><g><path fill="none" stroke="none"/><text fill="#000000" stroke="none" font-family="Arial" font-size="13px" font-style="normal" font-weight="normal" text-decoration="none" x="127.5" y="885.5">否</text></g></g><g transform="translate(-54,-38) scale(1,1)"><rect fill="#ffffff" stroke="none" x="328" y="1032" width="73.18994140625" height="32"/></g><g transform="translate(-54,-38) scale(1,1)"><path fill="none" stroke="#000000" d="M 328 1032 L 401.18994140625 1032 L 401.18994140625 1064 L 328 1064 L 328 1032 Z Z" stroke-miterlimit="10"/></g><g transform="translate(-54,-38) scale(1,1)"><g><path fill="none" stroke="none"/><text fill="#000000" stroke="none" font-family="Arial" font-size="13px" font-style="normal" font-weight="normal" text-decoration="none" x="338.594970703125" y="1054.5">返回连接</text></g></g><g transform="translate(-54,-38) scale(1,1)"><path fill="#ffffff" stroke="none" d="M 336.5 1112 L 392.578125 1112 Q 409.078125 1112 409.078125 1128.5 L 409.078125 1127.5 Q 409.078125 1144 392.578125 1144 L 336.5 1144 Q 320 1144 320 1127.5 L 320 1128.5 Q 320 1112 336.5 1112 Z"/></g><g transform="translate(-54,-38) scale(1,1)"><path fill="none" stroke="#000000" d="M 336.5 1112 L 392.578125 1112 Q 409.078125 1112 409.078125 1128.5 L 409.078125 1127.5 Q 409.078125 1144 392.578125 1144 L 336.5 1144 Q 320 1144 320 1127.5 L 320 1128.5 Q 320 1112 336.5 1112 Z" stroke-miterlimit="10"/></g><g transform="translate(-54,-38) scale(1,1)"><g><path fill="none" stroke="none"/><text fill="#000000" stroke="none" font-family="Arial" font-size="13px" font-style="normal" font-weight="normal" text-decoration="none" x="351.5390625" y="1134.5">结束</text></g></g><g transform="translate(-54,-38) scale(1,1)"><path fill="none" stroke="#000000" d="M 360 981 L 360 1032" stroke-miterlimit="10"/></g><g transform="translate(-54,-38) scale(1,1)"><path fill="#000000" stroke="none" d="M 355.790482243984 1021.8373251423759 L 360 1032 L 364.209517756016 1021.8373251423759"/></g><g transform="translate(-54,-38) scale(1,1)"><path fill="none" stroke="#000000" d="M 355.790482243984 1021.8373251423759 L 360 1032 L 364.209517756016 1021.8373251423759 L 355.790482243984 1021.8373251423759" stroke-miterlimit="10"/></g><g transform="translate(-54,-38) scale(1,1)"><path fill="none" stroke="#000000" d="M 364 1064 L 364 1112" stroke-miterlimit="10"/></g><g transform="translate(-54,-38) scale(1,1)"><path fill="#000000" stroke="none" d="M 359.790482243984 1101.837325142376 L 364 1112 L 368.209517756016 1101.837325142376"/></g><g transform="translate(-54,-38) scale(1,1)"><path fill="none" stroke="#000000" d="M 359.790482243984 1101.837325142376 L 364 1112 L 368.209517756016 1101.837325142376 L 359.790482243984 1101.837325142376" stroke-miterlimit="10"/></g><g transform="translate(-54,-38) scale(1,1)"><path fill="none" stroke="#000000" d="M 120 968 L 120 1120 M 120 1120 A 8 8 0 0 0 128 1128 L 320 1128" stroke-miterlimit="10"/></g><g transform="translate(-54,-38) scale(1,1)"><path fill="#000000" stroke="none" d="M 309.83732514237585 1132.2095177560159 L 320 1128 L 309.83732514237585 1123.7904822439841"/></g><g transform="translate(-54,-38) scale(1,1)"><path fill="none" stroke="#000000" d="M 309.83732514237585 1132.2095177560159 L 320 1128 L 309.83732514237585 1123.7904822439841 L 309.83732514237585 1132.2095177560159" stroke-miterlimit="10"/></g></g></svg>